<svg xmlns="http://www.w3.org/2000/svg" xmlns:xlink="http://www.w3.org/1999/xlink" width="500" zoomAndPan="magnify" viewBox="0 0 375 374.999991" height="500" preserveAspectRatio="xMidYMid meet" version="1.0"><defs><g/><clipPath id="6a8733d8fb"><path d="M 67.160156 75 L 307.910156 75 L 307.910156 295 L 67.160156 295 Z M 67.160156 75 " clip-rule="nonzero"/></clipPath></defs><path fill="#dc661f" d="M 150.566406 149.003906 L 135.496094 149.246094 L 135.46875 365.472656 L 128.113281 365.433594 L 128.148438 149.210938 C 120.828125 149.261719 105.84375 147.59375 105.34375 161.273438 C 104.960938 171.558594 105.332031 182.417969 105.332031 192.777344 L 105.332031 350.210938 C 105.304688 362.691406 110.972656 365.765625 124.558594 365.421875 L 124.59375 374.175781 L 147.855469 374.261719 L 147.929688 365.65625 L 247.789062 365.472656 L 247.824219 374.3125 L 271.0625 374.238281 L 271.171875 365.460938 C 284.453125 365.582031 290.4375 363.058594 290.398438 350.199219 L 290.386719 192.25 C 290.386719 182.945312 291.304688 169.558594 290.3125 160.746094 C 289.773438 156.003906 286.378906 152.65625 283.1875 151.050781 C 278.617188 148.757812 272.632812 148.867188 266.511719 149.332031 L 266.597656 365.410156 L 259.179688 365.351562 L 259.242188 149.199219 L 244.34375 149.210938 C 244.40625 136.375 246.941406 125.625 237.15625 118.113281 C 229.53125 112.253906 210.082031 114.128906 197.871094 114.128906 C 190.527344 114.128906 183.195312 114.128906 175.847656 114.128906 C 167.890625 114.117188 163.574219 114.421875 158.242188 117.828125 C 148.652344 123.960938 149.914062 136.007812 150.578125 148.976562 Z M 150.566406 149.003906 " fill-opacity="1" fill-rule="evenodd"/><g clip-path="url(#6a8733d8fb)"><path fill="#c48e6e" d="M 99.886719 103.121094 C 95.789062 106.882812 88.839844 121.640625 86.214844 128.753906 C 74.613281 160.085938 77.289062 195.144531 92.578125 223.410156 C 95.019531 227.933594 97.554688 231.574219 99.847656 235.4375 C 102.683594 240.203125 114.0625 253.015625 117.824219 255.957031 C 138.300781 272.003906 156.78125 283.144531 184.542969 286 C 230.425781 291.46875 275.097656 270.371094 299.167969 234.578125 L 307.515625 221.070312 C 307.601562 220.945312 307.773438 220.726562 307.910156 220.554688 C 306.941406 224.132812 305.394531 226.550781 303.59375 229.722656 L 301.105469 234.210938 C 301.019531 234.355469 300.894531 234.542969 300.808594 234.675781 L 286.277344 254.042969 C 279.925781 261.765625 265.066406 272.617188 255.601562 278.082031 C 236.375 289.1875 213.125 295.195312 189.925781 294.472656 C 181.378906 294.203125 166.601562 292.328125 158.289062 289.519531 C 142.691406 285.117188 129.78125 278.058594 117.285156 268.839844 C 108.835938 262.601562 96.808594 250.957031 90.933594 242.03125 C 71.734375 212.84375 62.414062 180.765625 69.585938 144.40625 C 71.734375 133.507812 75.4375 126.164062 77.972656 117.4375 C 81.960938 108.832031 85.796875 101.6875 90.847656 94.882812 L 106.972656 75.613281 C 111.265625 77.449219 111.511719 80.429688 114.859375 84.511719 C 112.320312 88.3125 102.042969 98.214844 99.886719 103.121094 Z M 99.886719 103.121094 " fill-opacity="1" fill-rule="evenodd"/></g><path fill="#c48e6e" d="M 108.996094 60.644531 C 109.878906 59.296875 113.621094 56.441406 115.371094 55.433594 C 120.753906 52.332031 138.511719 60.15625 144.359375 57.46875 C 145.929688 56.746094 149.867188 53.867188 151.386719 52.933594 L 165.488281 43.925781 C 166.945312 42.945312 167.289062 42.773438 168.773438 41.851562 C 170.046875 41.066406 169.558594 41.523438 170.660156 40.613281 C 170.796875 40.503906 170.980469 40.34375 171.101562 40.222656 C 171.238281 40.101562 171.410156 39.902344 171.53125 39.792969 C 171.65625 39.671875 171.851562 39.425781 171.960938 39.328125 C 172.058594 39.21875 172.242188 39.007812 172.378906 38.847656 L 124.078125 19.027344 C 125.734375 17.25 129.816406 15.386719 132.0625 14.332031 C 137.589844 11.734375 159.652344 15.558594 166.46875 16.257812 L 200.003906 19.800781 C 209.261719 20.597656 221.4375 6.316406 244.675781 1.386719 C 259.476562 -1.75 264.882812 6.070312 238.078125 18.671875 C 231.578125 21.726562 224.824219 25.707031 218.078125 29.679688 C 214.339844 42.207031 216.238281 51.082031 202.996094 56.160156 C 200.210938 54.652344 191.152344 48.496094 188.957031 46.070312 C 183.878906 48.925781 178.828125 51.804688 173.886719 54.652344 C 163.242188 60.78125 152.144531 66.34375 141.871094 72.742188 C 135.382812 76.777344 137.1875 75.378906 125.574219 69.496094 C 120.644531 66.996094 113.3125 63.980469 108.984375 60.632812 Z M 108.996094 60.644531 " fill-opacity="1" fill-rule="evenodd"/><g fill="#7b3911" fill-opacity="1"><g transform="translate(21.05238, 205.663991)"><g><path d="M 39.128906 -13.328125 C 41.804688 -13.761719 42.613281 -17.539062 40.777344 -19.351562 C 40.273438 -19.792969 39.792969 -20.144531 39.316406 -20.5 C 39.285156 -20.972656 39.226562 -21.535156 39.105469 -21.980469 C 38.746094 -23.328125 37.492188 -24.046875 36.3125 -24.5 C 35.019531 -25.019531 33.445312 -24.785156 32.074219 -24.515625 C 30.347656 -24.144531 28.578125 -23.570312 26.78125 -23.089844 C 22.410156 -21.816406 18.070312 -20.070312 14.144531 -17.855469 C 14.097656 -18.035156 14.160156 -18.148438 14.089844 -18.417969 L 14.042969 -18.597656 C 13.976562 -18.484375 13.886719 -18.460938 13.886719 -18.460938 L 12.382812 -22.964844 C 10.925781 -27.667969 9.375 -32.351562 7.734375 -37.007812 C 6.167969 -41.398438 4.578125 -45.875 2.898438 -50.328125 C 1.433594 -53.976562 0.183594 -58.257812 -3.082031 -60.746094 C -3.246094 -60.992188 -3.554688 -60.714844 -3.394531 -60.46875 C -1.921875 -58.941406 -1.121094 -57.039062 -0.5 -55.089844 C 0 -53.589844 1.070312 -50.320312 1.5625 -48.140625 L 0.414062 -50.621094 C -0.90625 -53.730469 -2.3125 -56.816406 -3.8125 -59.875 C -4.671875 -60.222656 -5.554688 -60.273438 -6.410156 -60.234375 C -7.222656 -60.402344 -8.21875 -60.519531 -9.136719 -60.367188 C -12.039062 -60.066406 -14.207031 -57.75 -13.140625 -54.863281 C -10.332031 -46.574219 -7.164062 -38.382812 -4.058594 -30.078125 C -2.476562 -25.984375 -0.867188 -21.800781 0.804688 -17.726562 C 1.660156 -14.207031 2.601562 -10.707031 3.363281 -7.160156 C 3.605469 -6.261719 3.734375 -5.429688 3.972656 -4.535156 C 4.421875 -2.152344 7.394531 -1.125 9.402344 -2.242188 C 18.632812 -7.617188 28.710938 -11.292969 39.128906 -13.328125 Z M -10.433594 -52.320312 C -10.984375 -54 -12.628906 -56.539062 -10.785156 -57.902344 C -10.382812 -58.203125 -9.871094 -58.4375 -9.511719 -58.535156 C -9.617188 -58.214844 -9.699219 -57.808594 -9.71875 -57.515625 L -9.164062 -54.394531 C -9.253906 -51.867188 -7.960938 -48.847656 -7.292969 -46.71875 C -6.015625 -42.347656 -4.742188 -37.976562 -3.46875 -33.605469 L -2.140625 -28.671875 C -4.304688 -34.921875 -6.378906 -41.191406 -8.65625 -47.507812 C -9.273438 -49.074219 -9.820312 -50.753906 -10.433594 -52.320312 Z M 38.59375 -9.238281 C 39.785156 -9.464844 39.253906 -11.4375 38.0625 -11.214844 C 32.925781 -9.925781 27.859375 -8.371094 22.867188 -6.542969 C 20.671875 -5.761719 18.503906 -4.886719 16.242188 -3.988281 C 14.007812 -3.003906 11.363281 -2.097656 9.566406 -0.554688 C 9.503906 -0.441406 9.527344 -0.351562 9.617188 -0.375 C 12.019531 -0.734375 14.429688 -2.152344 16.714844 -2.960938 C 19.0625 -3.882812 21.4375 -4.714844 23.835938 -5.457031 C 28.695312 -7.054688 33.5625 -8.269531 38.59375 -9.238281 Z M 38.59375 -9.238281 "/></g></g></g><g fill="#7b3911" fill-opacity="1"><g transform="translate(65.004821, 193.826576)"><g><path d="M 38.574219 -28.957031 C 38.707031 -36.691406 37.035156 -44.324219 34.671875 -51.671875 L 33.703125 -55.257812 C 33.125 -57.414062 32.1875 -59.46875 31.425781 -61.574219 C 30.265625 -64.820312 28.746094 -69.03125 24.589844 -68.390625 C 23.578125 -68.214844 23.035156 -67.011719 23.277344 -66.113281 L 23.519531 -65.214844 C 20.9375 -65.867188 18.191406 -63.203125 19.007812 -60.539062 C 21.269531 -52.488281 23.511719 -44.527344 25.121094 -36.398438 C 25.765625 -33.300781 27.464844 -27.699219 26.222656 -24.09375 C 25.257812 -22.675781 23.925781 -21.550781 22.316406 -20.730469 C 20.679688 -20.386719 19.140625 -20.742188 17.617188 -21.390625 C 13.457031 -27.195312 10.03125 -33.488281 7.722656 -40.277344 C 6.648438 -43.546875 5.730469 -46.957031 5.082031 -50.4375 C 4.511719 -53.265625 5.054688 -56.972656 3.339844 -59.398438 C 2.003906 -61.152344 -0.292969 -62.171875 -2.515625 -61.859375 C -8.117188 -61.21875 -9.425781 -54.996094 -9.203125 -50.246094 C -8.777344 -37.949219 -4.945312 -25.511719 2.445312 -15.570312 C 3.34375 -14.371094 4.722656 -14.261719 5.773438 -14.640625 C 7.316406 -12.84375 9.105469 -11.207031 11.113281 -9.824219 C 17 -5.828125 26.234375 -4.757812 31.363281 -10.371094 C 32.695312 -11.5 33.921875 -13.371094 34.488281 -14.484375 C 34.621094 -14.710938 34.75 -14.9375 34.972656 -15.191406 C 37.535156 -19.25 38.414062 -24.199219 38.574219 -28.957031 Z M 3.878906 -53.480469 C 4.65625 -45.222656 6.921875 -37.175781 10.484375 -29.667969 C 10.367188 -29.730469 10.28125 -29.707031 10.191406 -29.683594 C 9.628906 -30.6875 9.046875 -31.78125 8.554688 -32.898438 C 5.792969 -38.507812 4.125 -44.695312 3.199219 -50.988281 C 3.367188 -51.804688 3.328125 -52.660156 3.289062 -53.515625 C 3.429688 -53.359375 3.722656 -53.34375 3.878906 -53.480469 Z M 3.878906 -53.480469 "/></g></g></g><g fill="#7b3911" fill-opacity="1"><g transform="translate(112.545199, 181.022846)"><g><path d="M 40.089844 -49.765625 C 40.242188 -51.34375 40.054688 -53.121094 39.195312 -54.523438 C 37.988281 -56.507812 35.429688 -57.070312 33.347656 -56.222656 C 29.277344 -54.546875 25.464844 -52.269531 21.605469 -50.171875 C 17.746094 -48.074219 13.90625 -45.886719 10.183594 -43.632812 C 10.03125 -43.496094 9.851562 -43.445312 9.785156 -43.332031 C 8.113281 -42.402344 7.894531 -40.707031 8.460938 -39.320312 L 7.996094 -38.90625 C 5.003906 -36.082031 8.898438 -31.261719 12.402344 -33.261719 C 16.148438 -35.425781 19.757812 -37.746094 23.550781 -39.730469 C 25.40625 -40.707031 27.28125 -41.597656 29.132812 -42.578125 L 29.492188 -42.675781 C 29.070312 -41.023438 28.652344 -39.371094 28.140625 -37.695312 C 27.078125 -34.136719 25.675781 -30.777344 23.75 -27.5625 C 22.085938 -24.804688 19.8125 -22.171875 17.28125 -20.144531 C 16.789062 -19.820312 16.234375 -19.382812 15.65625 -19.035156 C 13.648438 -17.914062 11.542969 -17.15625 9.292969 -16.933594 L 8.054688 -16.890625 C 5.539062 -17.65625 3.960938 -20.308594 3.324219 -23.023438 C 2.453125 -26.253906 2.636719 -29.863281 3.210938 -33.09375 C 4.355469 -39.5625 7.625 -45.636719 12.363281 -50.1875 C 15.136719 -52.761719 18.410156 -54.894531 21.851562 -56.398438 C 23.574219 -57.148438 25.34375 -57.722656 27.136719 -58.207031 C 29.226562 -58.671875 31.152344 -59.382812 33.148438 -59.824219 C 33.777344 -59.992188 33.964844 -60.71875 33.640625 -61.207031 C 34.582031 -61.652344 35.40625 -62.164062 35.5 -63.246094 C 35.703125 -66.765625 31.3125 -66.640625 28.949219 -66.488281 C 21.949219 -66.042969 15.152344 -63.058594 9.152344 -59.617188 C 8.484375 -59.242188 8.246094 -58.699219 8.300781 -58.136719 C 2.796875 -54.632812 -1.523438 -49.234375 -4.367188 -43.371094 C -7.519531 -36.84375 -9.066406 -29.019531 -6.058594 -22.132812 C -4.667969 -18.753906 -2.296875 -16.027344 0.597656 -14.207031 C 2.34375 -12.371094 4.441406 -11.011719 6.730469 -10.375 C 8.609375 -9.824219 10.5 -9.949219 12.320312 -10.339844 C 12.628906 -9.558594 14.046875 -9.652344 14.789062 -9.753906 C 17.210938 -10.40625 19.46875 -11.304688 21.65625 -12.472656 C 26.1875 -14.941406 29.839844 -18.523438 32.898438 -22.523438 C 36.289062 -27.089844 38.652344 -32.25 40.355469 -37.710938 C 40.4375 -38.117188 40.519531 -38.527344 40.601562 -38.933594 L 40.65625 -39.8125 C 40.71875 -41.371094 40.597656 -42.878906 40.570312 -44.410156 C 40.34375 -44.539062 40.207031 -44.695312 40.066406 -44.851562 C 37.585938 -30.136719 28.089844 -19.304688 24.960938 -16.632812 C 23.34375 -15.136719 21.496094 -13.777344 19.578125 -12.679688 C 18.910156 -12.308594 13.929688 -9.71875 12.769531 -10.460938 C 14.742188 -10.992188 16.796875 -11.933594 18.539062 -12.976562 L 19.453125 -13.511719 C 22.953125 -15.515625 26.035156 -18.363281 28.660156 -21.476562 C 30.269531 -23.355469 31.605469 -25.542969 32.761719 -27.679688 C 35.128906 -31.398438 36.925781 -35.441406 38.175781 -39.722656 C 39.222656 -42.988281 39.769531 -46.308594 40.089844 -49.765625 Z M 40.089844 -49.765625 "/></g></g></g><g fill="#7b3911" fill-opacity="1"><g transform="translate(164.480793, 167.035381)"><g><path d="M 40.089844 -49.765625 C 40.242188 -51.34375 40.054688 -53.121094 39.195312 -54.523438 C 37.988281 -56.507812 35.429688 -57.070312 33.347656 -56.222656 C 29.277344 -54.546875 25.464844 -52.269531 21.605469 -50.171875 C 17.746094 -48.074219 13.90625 -45.886719 10.183594 -43.632812 C 10.03125 -43.496094 9.851562 -43.445312 9.785156 -43.332031 C 8.113281 -42.402344 7.894531 -40.707031 8.460938 -39.320312 L 7.996094 -38.90625 C 5.003906 -36.082031 8.898438 -31.261719 12.402344 -33.261719 C 16.148438 -35.425781 19.757812 -37.746094 23.550781 -39.730469 C 25.40625 -40.707031 27.28125 -41.597656 29.132812 -42.578125 L 29.492188 -42.675781 C 29.070312 -41.023438 28.652344 -39.371094 28.140625 -37.695312 C 27.078125 -34.136719 25.675781 -30.777344 23.75 -27.5625 C 22.085938 -24.804688 19.8125 -22.171875 17.28125 -20.144531 C 16.789062 -19.820312 16.234375 -19.382812 15.65625 -19.035156 C 13.648438 -17.914062 11.542969 -17.15625 9.292969 -16.933594 L 8.054688 -16.890625 C 5.539062 -17.65625 3.960938 -20.308594 3.324219 -23.023438 C 2.453125 -26.253906 2.636719 -29.863281 3.210938 -33.09375 C 4.355469 -39.5625 7.625 -45.636719 12.363281 -50.1875 C 15.136719 -52.761719 18.410156 -54.894531 21.851562 -56.398438 C 23.574219 -57.148438 25.34375 -57.722656 27.136719 -58.207031 C 29.226562 -58.671875 31.152344 -59.382812 33.148438 -59.824219 C 33.777344 -59.992188 33.964844 -60.71875 33.640625 -61.207031 C 34.582031 -61.652344 35.40625 -62.164062 35.5 -63.246094 C 35.703125 -66.765625 31.3125 -66.640625 28.949219 -66.488281 C 21.949219 -66.042969 15.152344 -63.058594 9.152344 -59.617188 C 8.484375 -59.242188 8.246094 -58.699219 8.300781 -58.136719 C 2.796875 -54.632812 -1.523438 -49.234375 -4.367188 -43.371094 C -7.519531 -36.84375 -9.066406 -29.019531 -6.058594 -22.132812 C -4.667969 -18.753906 -2.296875 -16.027344 0.597656 -14.207031 C 2.34375 -12.371094 4.441406 -11.011719 6.730469 -10.375 C 8.609375 -9.824219 10.5 -9.949219 12.320312 -10.339844 C 12.628906 -9.558594 14.046875 -9.652344 14.789062 -9.753906 C 17.210938 -10.40625 19.46875 -11.304688 21.65625 -12.472656 C 26.1875 -14.941406 29.839844 -18.523438 32.898438 -22.523438 C 36.289062 -27.089844 38.652344 -32.25 40.355469 -37.710938 C 40.4375 -38.117188 40.519531 -38.527344 40.601562 -38.933594 L 40.65625 -39.8125 C 40.71875 -41.371094 40.597656 -42.878906 40.570312 -44.410156 C 40.34375 -44.539062 40.207031 -44.695312 40.066406 -44.851562 C 37.585938 -30.136719 28.089844 -19.304688 24.960938 -16.632812 C 23.34375 -15.136719 21.496094 -13.777344 19.578125 -12.679688 C 18.910156 -12.308594 13.929688 -9.71875 12.769531 -10.460938 C 14.742188 -10.992188 16.796875 -11.933594 18.539062 -12.976562 L 19.453125 -13.511719 C 22.953125 -15.515625 26.035156 -18.363281 28.660156 -21.476562 C 30.269531 -23.355469 31.605469 -25.542969 32.761719 -27.679688 C 35.128906 -31.398438 36.925781 -35.441406 38.175781 -39.722656 C 39.222656 -42.988281 39.769531 -46.308594 40.089844 -49.765625 Z M 40.089844 -49.765625 "/></g></g></g><g fill="#7b3911" fill-opacity="1"><g transform="translate(216.416388, 153.047917)"><g><path d="M 32.109375 -11.535156 C 35.910156 -5.628906 42.5 -7.597656 39.339844 -15.40625 C 37.171875 -20.59375 33.691406 -27.449219 31.097656 -32.429688 C 35.1875 -36.898438 32.027344 -44.703125 24.992188 -43.675781 C 22.914062 -48.890625 18.726562 -62.289062 18.878906 -61.367188 C 19.316406 -58.3125 19.984375 -55.125 20.714844 -52.050781 C 20.625 -52.027344 20.625 -52.027344 20.511719 -52.089844 C 19.210938 -55.492188 17.859375 -59.074219 16.625 -62.589844 C 15.582031 -65.386719 13.214844 -66.675781 10.566406 -66.152344 C 9.460938 -67.394531 7.378906 -67.988281 5.878906 -67.488281 C 1.324219 -66.167969 1.03125 -60.121094 0.359375 -56.1875 C -0.476562 -50 -0.34375 -43.78125 -0.00390625 -37.523438 C -10.242188 -33.03125 -7.609375 -23.253906 -1.480469 -23.367188 C -1.320312 -23.121094 -1.3125 -22.738281 -1.355469 -22.535156 C -0.636719 -22.726562 0.234375 -23.058594 1.019531 -23.367188 C 1.074219 -17.800781 1.578125 -12.355469 2.285156 -6.871094 C 3.390625 1.875 14.855469 0.136719 13.371094 -8.21875 L 12.824219 -12.402344 C 12.824219 -12.402344 11.882812 -21.960938 11.867188 -26.671875 L 12.675781 -26.890625 C 12.394531 -21.136719 13.0625 -15.449219 14.0625 -9.945312 C 14.261719 -8.84375 15.789062 -9.253906 15.496094 -10.332031 C 14.472656 -15.925781 14.035156 -21.484375 13.929688 -27.226562 L 20.902344 -29.203125 C 22.492188 -26.164062 30.234375 -11.703125 32.109375 -11.535156 Z M 10.519531 -38.816406 C 10.191406 -43.25 10.300781 -47.128906 10.382812 -52.539062 C 12.394531 -48.652344 14.484375 -42.675781 15.445312 -40.527344 C 14.214844 -40.101562 11.726562 -39.335938 10.519531 -38.816406 Z M 10.519531 -38.816406 "/></g></g></g><g fill="#7b3911" fill-opacity="1"><g transform="translate(260.279114, 141.234664)"><g><path d="M 40.089844 -49.765625 C 40.242188 -51.34375 40.054688 -53.121094 39.195312 -54.523438 C 37.988281 -56.507812 35.429688 -57.070312 33.347656 -56.222656 C 29.277344 -54.546875 25.464844 -52.269531 21.605469 -50.171875 C 17.746094 -48.074219 13.90625 -45.886719 10.183594 -43.632812 C 10.03125 -43.496094 9.851562 -43.445312 9.785156 -43.332031 C 8.113281 -42.402344 7.894531 -40.707031 8.460938 -39.320312 L 7.996094 -38.90625 C 5.003906 -36.082031 8.898438 -31.261719 12.402344 -33.261719 C 16.148438 -35.425781 19.757812 -37.746094 23.550781 -39.730469 C 25.40625 -40.707031 27.28125 -41.597656 29.132812 -42.578125 L 29.492188 -42.675781 C 29.070312 -41.023438 28.652344 -39.371094 28.140625 -37.695312 C 27.078125 -34.136719 25.675781 -30.777344 23.75 -27.5625 C 22.085938 -24.804688 19.8125 -22.171875 17.28125 -20.144531 C 16.789062 -19.820312 16.234375 -19.382812 15.65625 -19.035156 C 13.648438 -17.914062 11.542969 -17.15625 9.292969 -16.933594 L 8.054688 -16.890625 C 5.539062 -17.65625 3.960938 -20.308594 3.324219 -23.023438 C 2.453125 -26.253906 2.636719 -29.863281 3.210938 -33.09375 C 4.355469 -39.5625 7.625 -45.636719 12.363281 -50.1875 C 15.136719 -52.761719 18.410156 -54.894531 21.851562 -56.398438 C 23.574219 -57.148438 25.34375 -57.722656 27.136719 -58.207031 C 29.226562 -58.671875 31.152344 -59.382812 33.148438 -59.824219 C 33.777344 -59.992188 33.964844 -60.71875 33.640625 -61.207031 C 34.582031 -61.652344 35.40625 -62.164062 35.5 -63.246094 C 35.703125 -66.765625 31.3125 -66.640625 28.949219 -66.488281 C 21.949219 -66.042969 15.152344 -63.058594 9.152344 -59.617188 C 8.484375 -59.242188 8.246094 -58.699219 8.300781 -58.136719 C 2.796875 -54.632812 -1.523438 -49.234375 -4.367188 -43.371094 C -7.519531 -36.84375 -9.066406 -29.019531 -6.058594 -22.132812 C -4.667969 -18.753906 -2.296875 -16.027344 0.597656 -14.207031 C 2.34375 -12.371094 4.441406 -11.011719 6.730469 -10.375 C 8.609375 -9.824219 10.5 -9.949219 12.320312 -10.339844 C 12.628906 -9.558594 14.046875 -9.652344 14.789062 -9.753906 C 17.210938 -10.40625 19.46875 -11.304688 21.65625 -12.472656 C 26.1875 -14.941406 29.839844 -18.523438 32.898438 -22.523438 C 36.289062 -27.089844 38.652344 -32.25 40.355469 -37.710938 C 40.4375 -38.117188 40.519531 -38.527344 40.601562 -38.933594 L 40.65625 -39.8125 C 40.71875 -41.371094 40.597656 -42.878906 40.570312 -44.410156 C 40.34375 -44.539062 40.207031 -44.695312 40.066406 -44.851562 C 37.585938 -30.136719 28.089844 -19.304688 24.960938 -16.632812 C 23.34375 -15.136719 21.496094 -13.777344 19.578125 -12.679688 C 18.910156 -12.308594 13.929688 -9.71875 12.769531 -10.460938 C 14.742188 -10.992188 16.796875 -11.933594 18.539062 -12.976562 L 19.453125 -13.511719 C 22.953125 -15.515625 26.035156 -18.363281 28.660156 -21.476562 C 30.269531 -23.355469 31.605469 -25.542969 32.761719 -27.679688 C 35.128906 -31.398438 36.925781 -35.441406 38.175781 -39.722656 C 39.222656 -42.988281 39.769531 -46.308594 40.089844 -49.765625 Z M 40.089844 -49.765625 "/></g></g></g><g fill="#7b3911" fill-opacity="1"><g transform="translate(312.214708, 127.2472)"><g><path d="M -10.691406 -47.921875 C -10.824219 -47.691406 -10.75 -47.421875 -10.546875 -47.382812 C -8.816406 -48.8125 -7.058594 -50.148438 -5.167969 -51.332031 C 0.199219 -54.992188 5.9375 -57.980469 11.675781 -60.96875 C 14.957031 -62.71875 18.300781 -64.582031 21.558594 -66.421875 C 20.75 -66.203125 19.945312 -65.984375 19.160156 -65.679688 C 15.375 -64.371094 11.890625 -62.664062 8.40625 -60.953125 L 6.488281 -59.859375 C 0.488281 -56.417969 -5.617188 -52.65625 -10.691406 -47.921875 Z M 49.464844 -24.964844 C 50.324219 -26.0625 50.703125 -27.511719 50.179688 -29.101562 C 48.441406 -34.117188 44.613281 -41.550781 38.089844 -38.257812 C 37.175781 -37.722656 36.402344 -37.03125 35.488281 -36.496094 L 32.277344 -34.476562 C 30.320312 -33.179688 28.382812 -31.792969 26.449219 -30.40625 C 25.222656 -29.59375 24.023438 -28.695312 22.820312 -27.792969 L 15.992188 -22.78125 C 14.238281 -21.441406 12.480469 -20.101562 10.75 -18.675781 L 10.527344 -18.421875 C 10.480469 -18.601562 10.457031 -18.691406 10.433594 -18.78125 L 8.324219 -24.46875 C 10.496094 -26.398438 12.582031 -28.308594 14.890625 -30.085938 C 18.625 -33.015625 22.480469 -35.496094 26.472656 -37.820312 C 28.480469 -38.9375 30.601562 -39.992188 32.65625 -40.929688 C 34.597656 -41.933594 36.597656 -42.375 38.238281 -43.78125 C 39.636719 -45.023438 40.183594 -47.285156 39.363281 -48.894531 C 38.941406 -49.742188 38.164062 -50.496094 37.234375 -50.726562 C 37.144531 -50.703125 37.144531 -50.703125 37.03125 -50.769531 C 36.84375 -51.101562 36.570312 -51.414062 36.292969 -51.722656 C 36.15625 -51.878906 35.992188 -52.125 35.742188 -52.34375 C 33.90625 -54.160156 31.726562 -53.667969 29.507812 -52.976562 C 28.457031 -52.59375 27.496094 -52.238281 26.464844 -51.769531 L 25.371094 -51.1875 C 22.71875 -49.605469 19.976562 -48.003906 17.300781 -46.511719 C 12.695312 -43.25 8.339844 -39.769531 3.894531 -36.261719 C 3.773438 -36.710938 2.367188 -39.796875 2.035156 -40.667969 L 2.167969 -40.898438 C 4.632812 -42.8125 7.214844 -44.660156 9.820312 -46.421875 C 10.683594 -47.136719 18.839844 -52.21875 23.078125 -54.707031 C 23.257812 -54.753906 23.414062 -54.894531 23.566406 -55.03125 C 25.484375 -56.125 27.378906 -57.308594 29.183594 -58.46875 L 33.308594 -61.023438 C 33.183594 -62.914062 32.40625 -64.722656 31.269531 -66.4375 C 30.726562 -66.675781 30.066406 -66.980469 29.523438 -67.21875 L 27.941406 -67.371094 C 27.355469 -67.402344 26.703125 -67.324219 26.050781 -67.246094 C 21.722656 -64.734375 17.398438 -62.222656 12.933594 -59.863281 C 7.171875 -56.964844 1.433594 -53.976562 -3.929688 -50.320312 C -5.644531 -49.183594 -7.425781 -47.933594 -9.09375 -46.621094 C -9.109375 -46.328125 -9.214844 -46.007812 -9.257812 -45.804688 C -10.222656 -44.390625 -10.667969 -42.828125 -10.363281 -40.984375 C -10.132812 -39.410156 -9.136719 -37.851562 -7.746094 -36.976562 L -3.914062 -27.039062 L 0.0625 -16.566406 C 1.175781 -13.496094 2.222656 -10.316406 3.585938 -7.410156 C 3.40625 -4.863281 5.65625 -2.582031 8.140625 -2.289062 C 8.171875 -1.816406 8.265625 -1.457031 8.566406 -1.054688 C 9.695312 0.273438 11.335938 -0.0703125 12.695312 -0.726562 C 13.054688 -0.824219 13.570312 -1.058594 13.570312 -1.058594 C 13.503906 -0.941406 18.207031 -3.84375 19.089844 -4.851562 L 19.15625 -4.964844 C 20.023438 -5.679688 20.910156 -6.304688 21.777344 -7.019531 C 21.933594 -7.15625 22.179688 -7.320312 22.332031 -7.457031 L 22.421875 -7.480469 C 25.046875 -9.535156 27.804688 -11.433594 30.566406 -13.332031 C 36.332031 -17.289062 42.507812 -20.78125 48.808594 -23.824219 C 49.324219 -24.058594 49.496094 -24.492188 49.464844 -24.964844 Z M 22.632812 -38.136719 L 22.796875 -37.890625 C 22.304688 -37.566406 21.90625 -37.265625 21.441406 -36.851562 C 17.4375 -33.847656 13.234375 -30.886719 9.441406 -27.460938 C 9.988281 -28.28125 10.285156 -29.324219 10.199219 -30.359375 C 11.785156 -31.269531 13.34375 -32.265625 14.992188 -33.285156 C 17.53125 -34.933594 20.09375 -36.488281 22.632812 -38.136719 Z M 11.167969 -1.757812 C 12.84375 -2.6875 14.351562 -3.867188 15.886719 -4.953125 C 17.449219 -5.949219 18.894531 -7.011719 20.339844 -8.074219 L 20.386719 -7.894531 C 19.234375 -6.816406 18.082031 -5.734375 16.839844 -4.632812 C 16.308594 -4.105469 15.6875 -3.550781 15.066406 -3 C 15 -2.886719 14.910156 -2.863281 14.824219 -2.835938 C 14.578125 -2.675781 12.5625 -1.941406 11.167969 -1.757812 Z M 11.167969 -1.757812 "/></g></g></g><g fill="#7b3911" fill-opacity="1"><g transform="translate(90.087935, 321.444441)"><g/></g></g><g fill="#7b3911" fill-opacity="1"><g transform="translate(109.810929, 316.13258)"><g><path d="M 52.4375 -23.9375 C 51.464844 -26.464844 50.136719 -28.898438 48.898438 -31.355469 C 47.472656 -34.144531 46.160156 -36.871094 44.828125 -39.6875 C 44.21875 -40.871094 43.585938 -42.140625 42.867188 -43.390625 C 42.277344 -44.867188 41.570312 -46.410156 40.890625 -47.863281 C 39.085938 -51.707031 37.28125 -55.550781 35.207031 -59.320312 C 33.320312 -62.757812 30.828125 -65.933594 27.300781 -67.964844 C 25.910156 -68.84375 23.9375 -68.3125 22.945312 -66.988281 C 21.699219 -67.324219 20.304688 -67.140625 18.902344 -66.28125 C 17.964844 -65.835938 17.21875 -64.675781 17.28125 -63.730469 C 18.304688 -55.632812 18.410156 -47.386719 18.785156 -39.214844 C 18.96875 -33.875 19.246094 -28.5625 19.433594 -23.226562 C 14.929688 -31.730469 10.128906 -41.695312 6.117188 -50.523438 C 5.152344 -52.667969 4.101562 -54.792969 3.34375 -56.894531 C 3.011719 -57.769531 2.410156 -58.570312 1.703125 -59.050781 C 0.640625 -60.496094 -1.019531 -61.300781 -2.820312 -61.203125 C -4.375 -61.261719 -5.941406 -60.648438 -7.136719 -59.367188 C -8.042969 -58.449219 -8.25 -57.429688 -8.007812 -56.53125 C -8.359375 -54.609375 -7.738281 -52.660156 -7.164062 -50.890625 C -6.582031 -48.738281 -5.9375 -46.699219 -5.359375 -44.546875 L -4.804688 -42.484375 C -4.984375 -42.433594 -5.605469 -44.382812 -5.78125 -44.335938 C -6.910156 -48.167969 -8.113281 -52.273438 -9.617188 -55.714844 C -9.828125 -56.140625 -10.726562 -55.898438 -10.695312 -55.425781 C -10.304688 -50.046875 -8.496094 -44.761719 -7.027344 -39.671875 C -5.601562 -34.378906 -4.0625 -29.019531 -2.457031 -23.777344 C -0.96875 -18.597656 0.742188 -13.671875 2.863281 -8.660156 C 3.710938 -6.578125 4.617188 -3.9375 6.664062 -2.757812 C 7.691406 -2.167969 8.996094 -2.328125 9.972656 -2.976562 C 10.113281 -2.820312 10.226562 -2.753906 10.339844 -2.6875 C 10.820312 -2.335938 11.449219 -2.507812 11.914062 -2.921875 C 14.445312 -4.949219 13.28125 -8.195312 12.492188 -10.773438 C 10.285156 -18.261719 7.886719 -26.082031 5.5 -33.519531 C 5.898438 -32.761719 6.359375 -32.117188 6.820312 -31.472656 C 8.335938 -28.703125 9.964844 -25.871094 11.570312 -23.128906 L 19.125 -10.441406 C 19.871094 -9.105469 20.589844 -7.855469 21.738281 -6.816406 C 22.011719 -6.503906 22.394531 -6.511719 22.617188 -6.765625 C 23.046875 -6.59375 23.519531 -6.625 23.96875 -6.742188 C 24.285156 -6.636719 24.734375 -6.757812 25.160156 -6.96875 C 26.496094 -7.714844 26.769531 -8.84375 26.878906 -10.222656 C 26.90625 -11.191406 26.871094 -12.046875 26.808594 -12.992188 C 26.855469 -12.8125 27.148438 -12.796875 27.140625 -13.179688 C 26.84375 -17.140625 26.601562 -23.039062 26.441406 -28.289062 C 26.34375 -33.648438 26.484375 -42.058594 26.945312 -48.917969 C 28.769531 -45.367188 30.589844 -41.816406 32.503906 -38.289062 C 36.578125 -31.019531 39.496094 -24.105469 41.800781 -16.261719 C 42.382812 -14.109375 44.480469 -12.75 46.664062 -12.855469 C 49.511719 -11.21875 52.445312 -13.546875 53.160156 -16.242188 C 53.8125 -18.824219 53.292969 -21.472656 52.4375 -23.9375 Z M 8.636719 -38.308594 C 8.589844 -38.488281 8.449219 -38.644531 8.335938 -38.710938 C 5.671875 -43.957031 2.964844 -49 0.148438 -54.109375 C 0.1875 -54.316406 0.164062 -54.40625 0.140625 -54.496094 C 0.566406 -54.703125 0.964844 -55.003906 1.25 -55.371094 C 1.996094 -54.03125 2.539062 -52.734375 3.082031 -51.4375 C 5.121094 -47.078125 8.050781 -40.84375 10.179688 -36.511719 C 9.496094 -36.90625 9.238281 -37.507812 8.636719 -38.308594 Z M 25.945312 -28.347656 L 25.855469 -28.324219 C 25.765625 -28.296875 25.675781 -28.273438 25.5625 -28.339844 C 25.46875 -29.757812 25.375 -31.175781 25.191406 -32.570312 C 24.984375 -39.054688 24.980469 -45.5 25.359375 -51.953125 C 25.707031 -51.375 25.964844 -50.769531 26.289062 -50.28125 C 25.859375 -42.949219 25.722656 -35.597656 25.945312 -28.347656 Z M 25.945312 -28.347656 "/></g></g></g><g fill="#7b3911" fill-opacity="1"><g transform="translate(165.424153, 301.154644)"><g><path d="M 32.109375 -11.535156 C 35.910156 -5.628906 42.5 -7.597656 39.339844 -15.40625 C 37.171875 -20.59375 33.691406 -27.449219 31.097656 -32.429688 C 35.1875 -36.898438 32.027344 -44.703125 24.992188 -43.675781 C 22.914062 -48.890625 18.726562 -62.289062 18.878906 -61.367188 C 19.316406 -58.3125 19.984375 -55.125 20.714844 -52.050781 C 20.625 -52.027344 20.625 -52.027344 20.511719 -52.089844 C 19.210938 -55.492188 17.859375 -59.074219 16.625 -62.589844 C 15.582031 -65.386719 13.214844 -66.675781 10.566406 -66.152344 C 9.460938 -67.394531 7.378906 -67.988281 5.878906 -67.488281 C 1.324219 -66.167969 1.03125 -60.121094 0.359375 -56.1875 C -0.476562 -50 -0.34375 -43.78125 -0.00390625 -37.523438 C -10.242188 -33.03125 -7.609375 -23.253906 -1.480469 -23.367188 C -1.320312 -23.121094 -1.3125 -22.738281 -1.355469 -22.535156 C -0.636719 -22.726562 0.234375 -23.058594 1.019531 -23.367188 C 1.074219 -17.800781 1.578125 -12.355469 2.285156 -6.871094 C 3.390625 1.875 14.855469 0.136719 13.371094 -8.21875 L 12.824219 -12.402344 C 12.824219 -12.402344 11.882812 -21.960938 11.867188 -26.671875 L 12.675781 -26.890625 C 12.394531 -21.136719 13.0625 -15.449219 14.0625 -9.945312 C 14.261719 -8.84375 15.789062 -9.253906 15.496094 -10.332031 C 14.472656 -15.925781 14.035156 -21.484375 13.929688 -27.226562 L 20.902344 -29.203125 C 22.492188 -26.164062 30.234375 -11.703125 32.109375 -11.535156 Z M 10.519531 -38.816406 C 10.191406 -43.25 10.300781 -47.128906 10.382812 -52.539062 C 12.394531 -48.652344 14.484375 -42.675781 15.445312 -40.527344 C 14.214844 -40.101562 11.726562 -39.335938 10.519531 -38.816406 Z M 10.519531 -38.816406 "/></g></g></g><g fill="#7b3911" fill-opacity="1"><g transform="translate(209.28689, 289.341388)"><g><path d="M 44.808594 -15.820312 C 46.792969 -17.027344 45.796875 -19.648438 44.957031 -21.34375 C 43.117188 -24.601562 41.03125 -27.695312 38.613281 -30.605469 C 33.816406 -36.625 27.777344 -41.539062 20.929688 -45.179688 C 20.246094 -45.574219 19.519531 -44.703125 19.777344 -44.101562 C 19.230469 -44.339844 18.777344 -44.601562 18.230469 -44.839844 L 20.226562 -46.722656 C 25.097656 -51.5 30.050781 -56.679688 31.597656 -63.445312 C 31.84375 -64.667969 30.324219 -65.316406 29.617188 -64.359375 L 29.421875 -64.015625 C 29.035156 -65.453125 27.957031 -66.605469 26.421875 -66.574219 C 24.484375 -66.632812 22.945312 -64.484375 21.726562 -63.289062 C 15.816406 -57.371094 8.1875 -50.695312 1.609375 -45.460938 C 0.539062 -48.730469 -0.421875 -51.9375 -1.40625 -55.234375 L -1.574219 -55.859375 C -1.574219 -55.859375 -1.6875 -55.925781 -1.664062 -55.835938 C -1.277344 -51.898438 -0.710938 -48.011719 -0.03125 -44.058594 C -0.277344 -43.894531 -0.40625 -43.667969 -0.605469 -43.324219 L -2.507812 -51.472656 C -2.976562 -53.558594 -3.644531 -55.6875 -3.589844 -57.625 C -3.191406 -62.929688 -11.34375 -63.910156 -12.582031 -58.859375 C -12.664062 -58.453125 -12.769531 -58.136719 -12.765625 -57.753906 C -14.527344 -56.796875 -14.125 -54.597656 -13.601562 -53.007812 C -13.167969 -51.390625 -12.644531 -49.800781 -12.207031 -48.1875 C -10.273438 -42.070312 -8.359375 -36.042969 -6.269531 -30.0625 C -4.175781 -24.082031 -1.816406 -18.175781 0.542969 -12.269531 C 1.539062 -9.652344 2.261719 -6.960938 4.015625 -4.738281 C 5.445312 -3.003906 7.933594 -2.328125 9.925781 -3.15625 C 12.679688 -2.933594 15.226562 -4.195312 16.894531 -6.570312 C 17.378906 -7.277344 17.226562 -8.199219 16.855469 -8.867188 C 15.941406 -10.835938 14.601562 -12.589844 13.691406 -14.175781 C 12.800781 -16.050781 11.824219 -17.90625 11.023438 -19.804688 C 9.042969 -24.660156 7.148438 -29.539062 5.371094 -34.351562 C 5.929688 -34.789062 6.574219 -35.253906 7.285156 -35.828125 L 8.574219 -36.753906 C 11.683594 -35.570312 14.488281 -33.726562 17.292969 -31.886719 C 23.675781 -27.832031 30.074219 -23.011719 35.207031 -17.179688 C 35.445312 -16.28125 35.84375 -15.523438 36.511719 -14.835938 C 37.636719 -13.503906 39.519531 -12.953125 41.222656 -13.410156 C 44.003906 -14.160156 45.082031 -16.953125 44.160156 -19.300781 C 42.308594 -24.382812 29.175781 -37.78125 24.632812 -41.078125 C 31.382812 -36.738281 37.042969 -31.433594 41.691406 -24.890625 C 42.800781 -23.265625 47.179688 -18.09375 44.621094 -16.15625 C 44.464844 -16.015625 44.652344 -15.683594 44.808594 -15.820312 Z M 44.808594 -15.820312 "/></g></g></g><g fill="#7b3911" fill-opacity="1"><g transform="translate(255.930279, 276.779238)"><g><path d="M -10.691406 -47.921875 C -10.824219 -47.691406 -10.75 -47.421875 -10.546875 -47.382812 C -8.816406 -48.8125 -7.058594 -50.148438 -5.167969 -51.332031 C 0.199219 -54.992188 5.9375 -57.980469 11.675781 -60.96875 C 14.957031 -62.71875 18.300781 -64.582031 21.558594 -66.421875 C 20.75 -66.203125 19.945312 -65.984375 19.160156 -65.679688 C 15.375 -64.371094 11.890625 -62.664062 8.40625 -60.953125 L 6.488281 -59.859375 C 0.488281 -56.417969 -5.617188 -52.65625 -10.691406 -47.921875 Z M 49.464844 -24.964844 C 50.324219 -26.0625 50.703125 -27.511719 50.179688 -29.101562 C 48.441406 -34.117188 44.613281 -41.550781 38.089844 -38.257812 C 37.175781 -37.722656 36.402344 -37.03125 35.488281 -36.496094 L 32.277344 -34.476562 C 30.320312 -33.179688 28.382812 -31.792969 26.449219 -30.40625 C 25.222656 -29.59375 24.023438 -28.695312 22.820312 -27.792969 L 15.992188 -22.78125 C 14.238281 -21.441406 12.480469 -20.101562 10.75 -18.675781 L 10.527344 -18.421875 C 10.480469 -18.601562 10.457031 -18.691406 10.433594 -18.78125 L 8.324219 -24.46875 C 10.496094 -26.398438 12.582031 -28.308594 14.890625 -30.085938 C 18.625 -33.015625 22.480469 -35.496094 26.472656 -37.820312 C 28.480469 -38.9375 30.601562 -39.992188 32.65625 -40.929688 C 34.597656 -41.933594 36.597656 -42.375 38.238281 -43.78125 C 39.636719 -45.023438 40.183594 -47.285156 39.363281 -48.894531 C 38.941406 -49.742188 38.164062 -50.496094 37.234375 -50.726562 C 37.144531 -50.703125 37.144531 -50.703125 37.03125 -50.769531 C 36.84375 -51.101562 36.570312 -51.414062 36.292969 -51.722656 C 36.15625 -51.878906 35.992188 -52.125 35.742188 -52.34375 C 33.90625 -54.160156 31.726562 -53.667969 29.507812 -52.976562 C 28.457031 -52.59375 27.496094 -52.238281 26.464844 -51.769531 L 25.371094 -51.1875 C 22.71875 -49.605469 19.976562 -48.003906 17.300781 -46.511719 C 12.695312 -43.25 8.339844 -39.769531 3.894531 -36.261719 C 3.773438 -36.710938 2.367188 -39.796875 2.035156 -40.667969 L 2.167969 -40.898438 C 4.632812 -42.8125 7.214844 -44.660156 9.820312 -46.421875 C 10.683594 -47.136719 18.839844 -52.21875 23.078125 -54.707031 C 23.257812 -54.753906 23.414062 -54.894531 23.566406 -55.03125 C 25.484375 -56.125 27.378906 -57.308594 29.183594 -58.46875 L 33.308594 -61.023438 C 33.183594 -62.914062 32.40625 -64.722656 31.269531 -66.4375 C 30.726562 -66.675781 30.066406 -66.980469 29.523438 -67.21875 L 27.941406 -67.371094 C 27.355469 -67.402344 26.703125 -67.324219 26.050781 -67.246094 C 21.722656 -64.734375 17.398438 -62.222656 12.933594 -59.863281 C 7.171875 -56.964844 1.433594 -53.976562 -3.929688 -50.320312 C -5.644531 -49.183594 -7.425781 -47.933594 -9.09375 -46.621094 C -9.109375 -46.328125 -9.214844 -46.007812 -9.257812 -45.804688 C -10.222656 -44.390625 -10.667969 -42.828125 -10.363281 -40.984375 C -10.132812 -39.410156 -9.136719 -37.851562 -7.746094 -36.976562 L -3.914062 -27.039062 L 0.0625 -16.566406 C 1.175781 -13.496094 2.222656 -10.316406 3.585938 -7.410156 C 3.40625 -4.863281 5.65625 -2.582031 8.140625 -2.289062 C 8.171875 -1.816406 8.265625 -1.457031 8.566406 -1.054688 C 9.695312 0.273438 11.335938 -0.0703125 12.695312 -0.726562 C 13.054688 -0.824219 13.570312 -1.058594 13.570312 -1.058594 C 13.503906 -0.941406 18.207031 -3.84375 19.089844 -4.851562 L 19.15625 -4.964844 C 20.023438 -5.679688 20.910156 -6.304688 21.777344 -7.019531 C 21.933594 -7.15625 22.179688 -7.320312 22.332031 -7.457031 L 22.421875 -7.480469 C 25.046875 -9.535156 27.804688 -11.433594 30.566406 -13.332031 C 36.332031 -17.289062 42.507812 -20.78125 48.808594 -23.824219 C 49.324219 -24.058594 49.496094 -24.492188 49.464844 -24.964844 Z M 22.632812 -38.136719 L 22.796875 -37.890625 C 22.304688 -37.566406 21.90625 -37.265625 21.441406 -36.851562 C 17.4375 -33.847656 13.234375 -30.886719 9.441406 -27.460938 C 9.988281 -28.28125 10.285156 -29.324219 10.199219 -30.359375 C 11.785156 -31.269531 13.34375 -32.265625 14.992188 -33.285156 C 17.53125 -34.933594 20.09375 -36.488281 22.632812 -38.136719 Z M 11.167969 -1.757812 C 12.84375 -2.6875 14.351562 -3.867188 15.886719 -4.953125 C 17.449219 -5.949219 18.894531 -7.011719 20.339844 -8.074219 L 20.386719 -7.894531 C 19.234375 -6.816406 18.082031 -5.734375 16.839844 -4.632812 C 16.308594 -4.105469 15.6875 -3.550781 15.066406 -3 C 15 -2.886719 14.910156 -2.863281 14.824219 -2.835938 C 14.578125 -2.675781 12.5625 -1.941406 11.167969 -1.757812 Z M 11.167969 -1.757812 "/></g></g></g><g fill="#7b3911" fill-opacity="1"><g transform="translate(311.543515, 261.801299)"><g><path d="M 41.925781 -47.949219 C 41.664062 -49.996094 40.691406 -51.464844 38.964844 -52.15625 C 37.558594 -52.738281 36.039062 -53.386719 34.539062 -53.945312 C 34.167969 -54.613281 33.613281 -55.234375 32.753906 -55.582031 C 22.367188 -59.132812 11.84375 -62.839844 1.128906 -63.324219 C 1.039062 -63.300781 0.925781 -63.363281 0.835938 -63.339844 C 0.136719 -63.441406 -0.539062 -63.453125 -1.242188 -63.550781 C -1.46875 -63.683594 -1.785156 -63.789062 -2.144531 -63.691406 C -5.25 -63.433594 -10.945312 -63.148438 -11.757812 -59.371094 C -12.1875 -57.042969 -10.523438 -54.796875 -8.433594 -53.820312 C -8.753906 -52.867188 -9.214844 -52.070312 -9.785156 -51.339844 C -8.246094 -48.484375 -6.773438 -45.511719 -5.324219 -42.632812 C -5.863281 -42.488281 -6.402344 -42.339844 -6.914062 -42.105469 C -9.605469 -41.382812 -9.472656 -36.605469 -6.527344 -35.667969 C -5.574219 -35.347656 -4.445312 -35.074219 -3.449219 -34.957031 L -5.441406 -34.132812 C -4.355469 -34.039062 -3.273438 -33.949219 -2.214844 -33.945312 C -1.832031 -33.949219 -1.578125 -33.730469 -1.507812 -33.460938 C -1.328125 -33.507812 -1.148438 -33.558594 -0.96875 -33.605469 L 0.414062 -30.609375 C 2.269531 -26.589844 4.121094 -22.566406 5.972656 -18.542969 L 8.375 -12.839844 C 9.085938 -10.914062 9.488281 -8.710938 10.445312 -6.949219 C 10.710938 -5.964844 11.777344 -5.578125 12.445312 -5.949219 C 12.679688 -5.433594 12.980469 -5.035156 13.371094 -4.660156 C 14.785156 -3.691406 16.554688 -4.265625 17.453125 -5.566406 C 18.160156 -6.527344 18.542969 -7.59375 18.792969 -8.8125 C 18.671875 -9.261719 18.527344 -9.800781 18.292969 -10.316406 C 17.378906 -14.78125 15.695312 -19.238281 14.246094 -23.558594 C 12.953125 -27.636719 11.484375 -31.667969 9.949219 -35.582031 C 12.304688 -36.121094 14.773438 -36.59375 17.132812 -37.132812 C 17.796875 -36.445312 18.578125 -35.695312 19.332031 -35.03125 L 19.355469 -34.941406 C 20.136719 -34.191406 20.828125 -33.414062 21.539062 -32.546875 C 24.140625 -29.6875 28.15625 -24.421875 29.769531 -22.355469 C 32.675781 -18.710938 35.605469 -14.976562 38.355469 -11.195312 C 38.761719 -11.113281 39.253906 -11.4375 39.449219 -11.78125 C 39.472656 -11.691406 39.5625 -11.714844 39.652344 -11.738281 C 40.558594 -11.597656 41.363281 -11.8125 42.148438 -12.121094 C 43.84375 -11.902344 45.785156 -12.90625 45.523438 -14.953125 C 44.667969 -20.976562 40.007812 -25.785156 36.207031 -30.246094 C 33.285156 -33.59375 30.140625 -36.691406 26.753906 -39.628906 C 31.066406 -40.40625 35.378906 -41.183594 39.667969 -42.050781 C 41.152344 -42.257812 42.445312 -44.238281 42.164062 -45.992188 Z M 1.808594 -51.867188 L 1.15625 -53.226562 C 9.351562 -53.511719 17.566406 -51.585938 25.753906 -48.691406 L 16.765625 -47.425781 C 14.242188 -48.574219 10.628906 -50.199219 8.398438 -47.769531 C 8.046875 -47.289062 7.921875 -46.679688 7.953125 -46.207031 C 7.480469 -46.175781 6.941406 -46.03125 6.46875 -46 C 5.601562 -47.789062 4.648438 -49.550781 3.691406 -51.3125 C 3.382812 -52.097656 2.488281 -51.855469 2.160156 -51.285156 C 2.019531 -51.441406 1.949219 -51.710938 1.808594 -51.867188 Z M 19.050781 -13.210938 C 18.832031 -15.460938 19.304688 -16.554688 18.167969 -19.710938 C 16.269531 -24.972656 14.371094 -30.234375 12.074219 -35.195312 L 11.355469 -35 C 14.414062 -27.933594 16.6875 -20.5625 19.050781 -13.210938 Z M 19.050781 -13.210938 "/></g></g></g></svg>